<svg width="60" height="60" viewBox="0 0 60 60" fill="none" xmlns="http://www.w3.org/2000/svg">
<g clip-path="url(#clip0_23_40)">
<path d="M60 30C60 13.4315 46.5685 0 30 0C13.4315 0 0 13.4315 0 30C0 46.5685 13.4315 60 30 60C46.5685 60 60 46.5685 60 30Z" fill="#032D4C"/>
<path fill-rule="evenodd" clip-rule="evenodd" d="M47.647 47.6471H40.5882V35.2958C40.5882 31.9076 39.0935 30.0172 36.4129 30.0172C33.4959 30.0172 31.7647 31.987 31.7647 35.2958V47.6471H24.7058V24.7059H31.7647V27.2857C31.7647 27.2857 33.9794 23.3996 38.97 23.3996C43.9623 23.3996 47.647 26.4461 47.647 32.7496V47.6471ZM16.6623 21.0369C14.2817 21.0369 12.3529 19.0923 12.3529 16.6941C12.3529 14.2976 14.2817 12.3529 16.6623 12.3529C19.0411 12.3529 20.97 14.2976 20.97 16.6941C20.9717 19.0923 19.0411 21.0369 16.6623 21.0369ZM12.3529 47.6471H21.1764V24.7059H12.3529V47.6471Z" fill="#5AFFB7"/>
</g>
<defs>
<clipPath id="clip0_23_40">
<rect width="60" height="60" fill="white"/>
</clipPath>
</defs>
</svg>
