<svg width="60" height="60" viewBox="0 0 60 60" fill="none" xmlns="http://www.w3.org/2000/svg">
<g clip-path="url(#clip0_23_35)">
<path d="M60 30C60 13.4314 46.5685 -1.52588e-05 30 -1.52588e-05C13.4315 -1.52588e-05 0 13.4314 0 30C0 46.5685 13.4315 60 30 60C46.5685 60 60 46.5685 60 30Z" fill="#032D4C"/>
<path fill-rule="evenodd" clip-rule="evenodd" d="M11.8416 30.2256C12.7273 20.0459 21.712 11.7708 31.7756 11.7708C37.6325 11.7708 41.8721 13.6868 44.5438 16.5945C47.2121 19.4984 48.5827 23.6798 48.151 28.7425C47.2106 35.9942 44.2948 37.9692 42.9079 38.2702C42.1573 38.4331 41.6154 38.2265 41.3185 37.9712C41.0533 37.7431 40.8104 37.3354 40.9121 36.6133L43.0669 20.4529C43.219 19.3124 42.4177 18.2646 41.2771 18.1125L40.2446 17.9748C39.1042 17.8228 38.0563 18.6241 37.9042 19.7646L37.8735 19.9951C36.8154 18.9671 35.5304 18.1439 34.0296 17.6054C27.6031 15.2993 20.8085 19.5129 18.4124 26.0035C16.0133 32.5021 18.476 40.079 24.9288 42.3946C29.011 43.8594 33.2417 42.6937 36.3992 39.9846C36.7744 40.7196 37.2888 41.375 37.9225 41.9202C39.5585 43.3269 41.8002 43.8402 44.0127 43.36C48.5485 42.3754 52.2663 37.6196 53.324 29.3515C53.3283 29.3171 53.3321 29.2827 53.335 29.2483C53.8848 22.9704 52.2131 17.2431 48.379 13.0705C44.5394 8.89194 38.7988 6.5625 31.7756 6.5625C18.9709 6.5625 7.76931 16.9428 6.65287 29.7744C5.52204 42.7712 15.1349 53.4375 28.1267 53.4375C32.1365 53.4375 34.7035 53.1067 38.4669 51.5156L38.9465 51.3127C40.0063 50.8646 40.5023 49.6423 40.0542 48.5825L39.6485 47.6231C39.2004 46.5633 37.9781 46.0675 36.9183 46.5156L36.4385 46.7183C33.4825 47.9681 31.6452 48.2292 28.1267 48.2292C18.2499 48.2292 10.9703 40.24 11.8416 30.2256ZM23.2984 27.8073C24.9569 23.3146 29.1713 21.3955 32.2704 22.5076C35.3433 23.6103 37.3156 27.7081 35.66 32.1927C34.0015 36.6854 29.7871 38.6044 26.6879 37.4923C23.6151 36.3896 21.6428 32.2919 23.2984 27.8073Z" fill="#5AFFB7"/>
</g>
<defs>
<clipPath id="clip0_23_35">
<rect width="60" height="60" fill="white"/>
</clipPath>
</defs>
</svg>
