<svg width="60" height="60" viewBox="0 0 60 60" fill="none" xmlns="http://www.w3.org/2000/svg">
<g clip-path="url(#clip0_23_27)">
<path d="M60 30C60 13.4315 46.5685 0 30 0C13.4315 0 0 13.4315 0 30C0 46.5685 13.4315 60 30 60C46.5685 60 60 46.5685 60 30Z" fill="#032D4C"/>
<path fill-rule="evenodd" clip-rule="evenodd" d="M30 5C43.8075 5 55 16.4748 55 30.6323C55 41.9548 47.845 51.5599 37.9175 54.9524C36.65 55.2049 36.2 54.4044 36.2 53.7219C36.2 52.8769 36.23 50.117 36.23 46.687C36.23 44.297 35.43 42.7371 34.5325 41.9421C40.1 41.3071 45.95 39.1394 45.95 29.2944C45.95 26.4944 44.98 24.2096 43.375 22.4146C43.635 21.7671 44.4925 19.1599 43.13 15.6299C43.13 15.6299 41.035 14.9431 36.2625 18.2581C34.265 17.6906 32.125 17.405 30 17.395C27.875 17.405 25.7375 17.6906 23.7425 18.2581C18.965 14.9431 16.865 15.6299 16.865 15.6299C15.5075 19.1599 16.365 21.7671 16.6225 22.4146C15.025 24.2096 14.0475 26.4944 14.0475 29.2944C14.0475 39.1144 19.885 41.3154 25.4375 41.9629C24.7225 42.6029 24.075 43.7319 23.85 45.3894C22.425 46.0444 18.805 47.178 16.575 43.2605C16.575 43.2605 15.2525 40.7977 12.7425 40.6177C12.7425 40.6177 10.305 40.5853 12.5725 42.1753C12.5725 42.1753 14.21 42.9628 15.3475 45.9253C15.3475 45.9253 16.815 50.5002 23.77 48.9502C23.7825 51.0927 23.805 53.1119 23.805 53.7219C23.805 54.3994 23.345 55.1923 22.0975 54.9548C12.1625 51.5673 5 41.9573 5 30.6323C5 16.4748 16.195 5 30 5Z" fill="#5AFFB7"/>
</g>
<defs>
<clipPath id="clip0_23_27">
<rect width="60" height="60" fill="white"/>
</clipPath>
</defs>
</svg>
