<svg width="64" height="64" viewBox="0 0 64 64" fill="none" xmlns="http://www.w3.org/2000/svg">
<path d="M36.664 1.32C35.2576 0.467785 33.6445 0.0172119 32 0.0172119C30.3555 0.0172119 28.7424 0.467785 27.336 1.32L6.336 14.048C5.01266 14.8499 3.9184 15.9794 3.15887 17.3274C2.39934 18.6755 2.00021 20.1967 2 21.744V42.256C2.00021 43.8033 2.39934 45.3245 3.15887 46.6726C3.9184 48.0206 5.01266 49.1501 6.336 49.952L27.336 62.68C28.7424 63.5322 30.3555 63.9828 32 63.9828C33.6445 63.9828 35.2576 63.5322 36.664 62.68L57.664 49.952C58.9873 49.1501 60.0816 48.0206 60.8411 46.6726C61.6007 45.3245 61.9998 43.8033 62 42.256V21.744C61.9998 20.1967 61.6007 18.6755 60.8411 17.3274C60.0816 15.9794 58.9873 14.8499 57.664 14.048L36.664 1.32Z" fill="#5AFFB7"/>
<path d="M53.1306 19.3753H38.9498C38.2173 19.3753 37.5214 19.5269 36.8785 19.7881C35.8813 17.5342 33.6256 15.947 31.0137 15.947H11.7534C8.22281 15.947 5.33331 18.8365 5.33331 22.3671V41.6274C5.33331 45.158 8.22281 48.0475 11.7534 48.0475H31.0137C33.6256 48.0475 35.8813 46.4621 36.8785 44.2064C37.5196 44.4676 38.2155 44.6173 38.9498 44.6173H53.1306C56.179 44.6173 58.6593 42.1388 58.6593 39.0886V24.9078C58.6593 21.8557 56.179 19.3753 53.1306 19.3753ZM21.3224 42.3945C16.1205 42.3945 13.8301 37.7205 13.7991 32.0274C13.7991 26.2046 16.2758 21.5909 21.4758 21.5909C26.8603 21.5909 28.968 26.3909 28.968 31.9032C28.968 38.1242 26.4603 42.3945 21.3224 42.3945ZM57.0539 39.0849C57.0539 41.2493 55.2931 43.01 53.1306 43.01H38.9498C38.3689 43.01 37.8265 42.8657 37.3278 42.6356C37.3808 42.3032 37.4338 41.9726 37.4338 41.6219V22.3671C37.4338 22.0201 37.3863 21.6877 37.3278 21.3552C37.8246 21.1251 38.3671 20.9808 38.9498 20.9808H53.1306C55.295 20.9808 57.0539 22.7434 57.0539 24.9059V39.0849Z" fill="#032D4D" stroke="#032D4D" stroke-width="0.00666575"/>
<path d="M42.6447 26.4091L43.2146 29.0082L46.0402 27.6676H46.0858V39.4009H49.4356V24.5845H46.5662L42.6447 26.4091Z" fill="#032D4D" stroke="#032D4D" stroke-width="0.00666575"/>
<path d="M21.4137 25.1543C19.6821 25.1543 18.5041 27.3516 18.5351 32.0292C18.5041 36.6393 19.6182 38.8383 21.4447 38.8383C23.2712 38.8383 24.2611 36.5461 24.2611 31.9653C24.263 27.5068 23.3041 25.1543 21.4137 25.1543Z" fill="#032D4D" stroke="#032D4D" stroke-width="0.00666575"/>
</svg>
